<?xml version="1.0" encoding="UTF-8"?>
<!DOCTYPE svg PUBLIC "-//W3C//DTD SVG 1.1//EN" "http://www.w3.org/Graphics/SVG/1.1/DTD/svg11.dtd"><svg version="1.1" viewBox="0 0 7300 6500" preserveAspectRatio="xMidYMid" fill-rule="evenodd" xmlns="http://www.w3.org/2000/svg" xmlns:xlink="http://www.w3.org/1999/xlink"><g visibility="visible" id="Default"><desc>Master slide</desc><g style="stroke:none;fill:none"><rect x="-14" y="-14" width="7330" height="6530"/></g></g><g visibility="visible" id="page1"><desc>Slide</desc><g><desc>Group</desc><g><desc>Group</desc><g><desc>Drawing</desc><g><g style="stroke:none;fill:rgb(0,0,0)"><path d="M 690,3268 L 635,2886 419,3268 690,3268 Z M 600,2757 L 733,2757 873,3622 745,3622 709,3364 366,3364 220,3622 100,3622 600,2757 Z M 661,2757 L 661,2757 Z M 1341,2974 C 1412,2974 1467,2991 1504,3025 1541,3059 1557,3120 1549,3204 L 1446,3204 C 1447,3165 1439,3132 1422,3107 1405,3081 1372,3068 1322,3068 1254,3068 1199,3101 1157,3167 1130,3210 1109,3263 1097,3326 1085,3389 1088,3442 1106,3486 1123,3529 1161,3551 1219,3551 1262,3551 1300,3537 1331,3510 1363,3483 1388,3446 1407,3399 L 1510,3399 C 1482,3483 1439,3544 1384,3584 1330,3621 1266,3641 1193,3641 1109,3641 1050,3611 1012,3551 976,3490 965,3415 984,3325 1007,3213 1051,3128 1116,3066 1182,3004 1258,2974 1341,2974 Z M 1324,2976 L 1324,2976 Z M 1963,2977 C 2009,2977 2050,2988 2088,3009 2126,3030 2153,3057 2168,3090 2183,3122 2189,3159 2188,3202 2188,3231 2183,3277 2170,3341 L 1706,3341 C 1696,3405 1701,3456 1721,3496 1742,3533 1782,3553 1841,3553 1897,3553 1944,3535 1985,3498 2008,3476 2026,3452 2040,3424 L 2144,3424 C 2137,3448 2122,3474 2100,3503 2080,3531 2057,3554 2034,3572 1996,3603 1952,3625 1903,3635 1875,3642 1846,3646 1814,3646 1735,3646 1673,3617 1630,3560 1588,3503 1576,3422 1597,3319 1617,3218 1662,3136 1729,3072 1797,3009 1875,2977 1963,2977 Z M 2077,3256 C 2082,3211 2080,3174 2069,3147 2050,3096 2007,3069 1939,3069 1890,3069 1846,3088 1806,3123 1766,3158 1740,3203 1726,3256 L 2077,3256 Z M 1954,2976 L 1954,2976 Z M 2489,2757 L 2511,3462 2848,2757 2976,2757 3031,3462 3335,2757 3464,2757 3063,3622 2940,3622 2884,2905 2538,3622 2414,3622 2362,2757 2489,2757 Z M 3509,2994 L 3618,2994 3492,3622 3384,3622 3509,2994 Z M 3557,2757 L 3666,2757 3642,2877 3533,2877 3557,2757 Z M 3824,2757 L 3926,2757 3825,3260 4152,2992 4287,2992 3998,3228 4175,3622 4039,3622 3905,3304 3800,3385 3752,3622 3651,3622 3824,2757 Z M 4383,2994 L 4491,2994 4366,3622 4257,3622 4383,2994 Z M 4431,2757 L 4540,2757 4514,2877 4407,2877 4431,2757 Z"/></g><g style="stroke:none;fill:none"><rect x="86" y="2743" width="4469" height="918"/></g><g/></g></g><g><desc>Drawing</desc><g><g style="stroke:none;fill:rgb(0,0,0)"><path d="M 6534,3214 C 6534,1236 4571,454 4571,136 4571,-183 7100,1683 7100,3214 7100,4742 4571,6620 4571,6293 4571,5967 6534,5191 6534,3214 Z"/><path d="M 6522,3214 C 6522,2968 6491,2740 6438,2530 L 6450,2527 6461,2524 C 6515,2736 6546,2966 6546,3214 L 6534,3214 6522,3214 Z"/><path d="M 6438,2530 C 6385,2319 6308,2126 6217,1949 L 6227,1943 6238,1938 C 6330,2117 6407,2312 6461,2524 L 6450,2527 6438,2530 Z"/><path d="M 6217,1949 C 6033,1594 5789,1301 5544,1061 L 5553,1052 5561,1044 C 5807,1286 6053,1580 6238,1938 L 6227,1943 6217,1949 Z"/><path d="M 5544,1061 C 5299,820 5054,631 4870,482 L 4878,473 4885,464 C 5070,613 5315,802 5561,1044 L 5553,1052 5544,1061 Z"/><path d="M 4870,482 C 4824,445 4782,410 4744,378 L 4752,369 4760,360 C 4797,392 4839,426 4885,464 L 4878,473 4870,482 Z"/><path d="M 4744,378 C 4707,345 4674,315 4647,287 L 4655,278 4664,270 C 4691,298 4723,327 4760,360 L 4752,369 4744,378 Z"/><path d="M 4647,287 C 4619,258 4598,232 4583,207 L 4593,201 4603,195 C 4617,218 4638,243 4664,270 L 4655,278 4647,287 Z"/><path d="M 4583,207 C 4575,195 4569,183 4565,171 L 4577,167 4588,163 C 4591,173 4597,184 4603,195 L 4593,201 4583,207 Z"/><path d="M 4565,171 C 4561,159 4559,147 4559,136 L 4571,136 4583,136 C 4583,145 4585,154 4588,163 L 4577,167 4565,171 Z"/><path d="M 4559,136 C 4559,128 4560,121 4563,116 L 4574,120 4585,125 C 4584,128 4583,132 4583,136 L 4571,136 4559,136 Z"/><path d="M 4563,116 C 4564,112 4565,110 4567,107 L 4577,114 4587,121 C 4586,122 4585,123 4585,125 L 4574,120 4563,116 Z"/><path d="M 4567,107 C 4569,104 4572,102 4574,100 L 4582,109 4589,118 C 4588,119 4588,120 4587,121 L 4577,114 4567,107 Z"/><path d="M 4574,100 C 4577,98 4579,96 4582,94 L 4588,105 4593,116 C 4592,116 4591,117 4589,118 L 4582,109 4574,100 Z"/><path d="M 4582,94 C 4585,93 4588,92 4592,91 L 4595,102 4598,114 C 4596,114 4595,115 4593,116 L 4588,105 4582,94 Z"/><path d="M 4592,91 C 4598,89 4605,88 4613,88 L 4613,100 4613,112 C 4607,112 4602,113 4598,114 L 4595,102 4592,91 Z"/><path d="M 4613,88 C 4624,88 4637,90 4652,93 L 4649,105 4646,117 C 4634,114 4622,112 4613,112 L 4613,100 4613,88 Z"/><path d="M 4652,93 C 4666,97 4682,102 4699,108 L 4695,119 4691,131 C 4675,124 4660,120 4646,117 L 4649,105 4652,93 Z"/><path d="M 4699,108 C 4734,121 4774,140 4820,165 L 4814,176 4809,186 C 4764,162 4724,143 4691,131 L 4695,119 4699,108 Z"/><path d="M 4820,165 C 4911,215 5023,287 5148,378 L 5141,388 5134,397 C 5010,307 4899,235 4809,186 L 4814,176 4820,165 Z"/><path d="M 5148,378 C 5397,560 5698,817 5989,1118 L 5980,1127 5971,1135 C 5682,835 5382,579 5134,397 L 5141,388 5148,378 Z"/><path d="M 5989,1118 C 6280,1420 6560,1766 6768,2125 L 6758,2131 6747,2137 C 6540,1779 6261,1435 5971,1135 L 5980,1127 5989,1118 Z"/><path d="M 6768,2125 C 6872,2305 6958,2488 7018,2670 L 7007,2674 6995,2678 C 6936,2497 6851,2315 6747,2137 L 6758,2131 6768,2125 Z"/><path d="M 7018,2670 C 7078,2854 7112,3036 7112,3214 L 7100,3214 7088,3214 C 7088,3038 7054,2858 6995,2678 L 7007,2674 7018,2670 Z"/><path d="M 7112,3214 C 7112,3391 7078,3573 7018,3756 L 7007,3753 6995,3749 C 7055,3568 7088,3389 7088,3214 L 7100,3214 7112,3214 Z"/><path d="M 7018,3756 C 6959,3939 6873,4122 6769,4302 L 6759,4296 6748,4290 C 6851,4111 6936,3930 6995,3749 L 7007,3753 7018,3756 Z"/><path d="M 6769,4302 C 6562,4661 6282,5007 5991,5309 L 5982,5301 5974,5292 C 6263,4992 6542,4647 6748,4290 L 6759,4296 6769,4302 Z"/><path d="M 5991,5309 C 5701,5611 5400,5869 5151,6051 L 5144,6042 5137,6032 C 5385,5850 5685,5593 5974,5292 L 5982,5301 5991,5309 Z"/><path d="M 5151,6051 C 5026,6143 4914,6215 4823,6265 L 4817,6254 4811,6244 C 4902,6195 5013,6123 5137,6032 L 5144,6042 5151,6051 Z"/><path d="M 4823,6265 C 4777,6290 4736,6309 4702,6322 L 4697,6311 4693,6300 C 4727,6287 4767,6268 4811,6244 L 4817,6254 4823,6265 Z"/><path d="M 4702,6322 C 4684,6329 4668,6334 4654,6337 L 4651,6326 4648,6314 C 4662,6311 4677,6306 4693,6300 L 4697,6311 4702,6322 Z"/><path d="M 4654,6337 C 4639,6341 4626,6342 4614,6342 L 4614,6330 4614,6318 C 4624,6318 4635,6317 4648,6314 L 4651,6326 4654,6337 Z"/><path d="M 4614,6342 C 4606,6342 4599,6342 4592,6340 L 4596,6328 4599,6317 C 4603,6318 4609,6318 4614,6318 L 4614,6330 4614,6342 Z"/><path d="M 4592,6340 C 4589,6339 4586,6337 4583,6336 L 4588,6325 4594,6315 C 4595,6315 4597,6316 4599,6317 L 4596,6328 4592,6340 Z"/><path d="M 4583,6336 C 4580,6334 4577,6333 4574,6330 L 4582,6321 4590,6312 C 4591,6313 4592,6314 4594,6315 L 4588,6325 4583,6336 Z"/><path d="M 4574,6330 C 4572,6328 4570,6326 4568,6323 L 4577,6316 4587,6309 C 4588,6310 4589,6311 4590,6312 L 4582,6321 4574,6330 Z"/><path d="M 4568,6323 C 4566,6320 4564,6317 4563,6314 L 4574,6310 4585,6305 C 4586,6307 4586,6308 4587,6309 L 4577,6316 4568,6323 Z"/><path d="M 4563,6314 C 4560,6308 4559,6301 4559,6293 L 4571,6293 4583,6293 C 4583,6298 4584,6302 4585,6305 L 4574,6310 4563,6314 Z"/><path d="M 4559,6293 C 4559,6282 4561,6270 4565,6257 L 4577,6261 4588,6265 C 4585,6275 4583,6284 4583,6293 L 4571,6293 4559,6293 Z"/><path d="M 4565,6257 C 4569,6245 4575,6233 4583,6220 L 4593,6226 4603,6233 C 4597,6244 4591,6255 4588,6265 L 4577,6261 4565,6257 Z"/><path d="M 4583,6220 C 4598,6196 4619,6169 4647,6140 L 4655,6148 4664,6156 C 4638,6184 4617,6209 4603,6233 L 4593,6226 4583,6220 Z"/><path d="M 4647,6140 C 4674,6112 4707,6081 4744,6048 L 4752,6057 4760,6066 C 4723,6099 4691,6129 4664,6156 L 4655,6148 4647,6140 Z"/><path d="M 4744,6048 C 4782,6015 4824,5981 4870,5943 L 4878,5952 4885,5962 C 4839,5999 4797,6034 4760,6066 L 4752,6057 4744,6048 Z"/><path d="M 4870,5943 C 5054,5794 5299,5605 5544,5364 L 5553,5373 5561,5381 C 5315,5622 5070,5812 4885,5962 L 4878,5952 4870,5943 Z"/><path d="M 5544,5364 C 5789,5124 6033,4832 6217,4478 L 6227,4483 6238,4489 C 6053,4846 5807,5139 5561,5381 L 5553,5373 5544,5364 Z"/><path d="M 6217,4478 C 6308,4301 6385,4108 6438,3898 L 6450,3901 6461,3903 C 6407,4115 6330,4310 6238,4489 L 6227,4483 6217,4478 Z"/><path d="M 6438,3898 C 6491,3687 6522,3460 6522,3214 L 6534,3214 6546,3214 C 6546,3462 6515,3692 6461,3903 L 6450,3901 6438,3898 Z"/></g><g/></g></g><g><desc>Drawing</desc><g><g style="stroke:none;fill:rgb(0,0,0)"><path d="M 5256,3246 C 5256,1947 2363,1439 2363,1224 2363,1011 5881,2243 5881,3246 5881,4250 2363,5475 2363,5266 2363,5057 5256,4543 5256,3246 Z"/><path d="M 5268,3246 C 5268,3328 5256,3407 5235,3484 L 5224,3480 5212,3477 C 5233,3403 5245,3326 5245,3246 L 5256,3246 5268,3246 Z"/><path d="M 5235,3484 C 5213,3559 5182,3632 5142,3703 L 5132,3697 5122,3691 C 5161,3623 5192,3551 5212,3477 L 5224,3480 5235,3484 Z"/><path d="M 5142,3703 C 5062,3842 4948,3971 4811,4088 L 4804,4080 4796,4071 C 4931,3955 5043,3829 5122,3691 L 5132,3697 5142,3703 Z"/><path d="M 4811,4088 C 4539,4323 4177,4516 3814,4675 L 3810,4664 3805,4654 C 4165,4496 4526,4304 4796,4071 L 4804,4080 4811,4088 Z"/><path d="M 3814,4675 C 3452,4833 3090,4958 2819,5056 L 2815,5045 2811,5034 C 3082,4936 3444,4812 3805,4654 L 3810,4664 3814,4675 Z"/><path d="M 2819,5056 C 2751,5080 2689,5103 2634,5124 L 2630,5113 2626,5103 C 2681,5081 2743,5059 2811,5034 L 2815,5045 2819,5056 Z"/><path d="M 2634,5124 C 2579,5145 2531,5165 2492,5183 L 2487,5173 2482,5162 C 2522,5144 2570,5124 2626,5103 L 2630,5113 2634,5124 Z"/><path d="M 2492,5183 C 2473,5192 2455,5201 2440,5209 L 2435,5199 2429,5189 C 2445,5180 2462,5171 2482,5162 L 2487,5173 2492,5183 Z"/><path d="M 2440,5209 C 2425,5217 2413,5225 2402,5233 L 2395,5223 2389,5214 C 2400,5206 2413,5198 2429,5189 L 2435,5199 2440,5209 Z"/><path d="M 2402,5233 C 2393,5240 2385,5246 2380,5253 L 2371,5246 2362,5239 C 2368,5231 2377,5223 2389,5214 L 2395,5223 2402,5233 Z"/><path d="M 2380,5253 C 2378,5255 2377,5258 2376,5261 L 2365,5256 2354,5252 C 2356,5248 2359,5243 2362,5239 L 2371,5246 2380,5253 Z"/><path d="M 2376,5261 C 2375,5263 2375,5264 2375,5266 L 2363,5266 2352,5266 C 2352,5262 2352,5257 2354,5252 L 2365,5256 2376,5261 Z"/><path d="M 2375,5266 C 2375,5267 2375,5267 2375,5268 L 2364,5272 2353,5276 C 2352,5273 2352,5270 2352,5266 L 2363,5266 2375,5266 Z"/><path d="M 2375,5268 C 2375,5268 2375,5269 2376,5269 L 2367,5277 2358,5284 C 2356,5282 2354,5279 2353,5276 L 2364,5272 2375,5268 Z"/><path d="M 2376,5269 C 2376,5270 2377,5271 2378,5271 L 2371,5281 2365,5290 C 2362,5288 2360,5286 2358,5284 L 2367,5277 2376,5269 Z"/><path d="M 2378,5271 C 2379,5272 2381,5273 2382,5273 L 2378,5284 2374,5295 C 2370,5293 2368,5292 2365,5290 L 2371,5281 2378,5271 Z"/><path d="M 2382,5273 C 2386,5275 2392,5276 2398,5277 L 2396,5288 2395,5300 C 2386,5299 2379,5297 2374,5295 L 2378,5284 2382,5273 Z"/><path d="M 2398,5277 C 2404,5278 2412,5278 2421,5278 L 2421,5290 2421,5301 C 2411,5301 2402,5301 2395,5300 L 2396,5288 2398,5277 Z"/><path d="M 2421,5278 C 2435,5278 2452,5277 2470,5275 L 2471,5287 2473,5298 C 2453,5300 2436,5301 2421,5301 L 2421,5290 2421,5278 Z"/><path d="M 2470,5275 C 2489,5273 2510,5270 2533,5266 L 2535,5277 2538,5288 C 2514,5293 2492,5296 2473,5298 L 2471,5287 2470,5275 Z"/><path d="M 2533,5266 C 2580,5257 2636,5245 2698,5229 L 2701,5240 2704,5251 C 2641,5267 2585,5280 2538,5288 L 2535,5277 2533,5266 Z"/><path d="M 2698,5229 C 2824,5197 2979,5149 3151,5090 L 3155,5101 3159,5112 C 2985,5171 2830,5219 2704,5251 L 2701,5240 2698,5229 Z"/><path d="M 3151,5090 C 3497,4971 3914,4803 4318,4606 L 4323,4616 4328,4626 C 3923,4824 3505,4993 3159,5112 L 3155,5101 3151,5090 Z"/><path d="M 4318,4606 C 4721,4408 5110,4182 5398,3948 L 5405,3957 5412,3966 C 5123,4201 4732,4428 4328,4626 L 4323,4616 4318,4606 Z"/><path d="M 5398,3948 C 5541,3831 5659,3712 5742,3594 L 5751,3600 5761,3607 C 5677,3727 5557,3847 5412,3966 L 5405,3957 5398,3948 Z"/><path d="M 5742,3594 C 5783,3535 5815,3476 5836,3418 L 5847,3422 5858,3426 C 5836,3486 5803,3546 5761,3607 L 5751,3600 5742,3594 Z"/><path d="M 5836,3418 C 5858,3360 5870,3303 5870,3246 L 5881,3246 5893,3246 C 5893,3306 5881,3366 5858,3426 L 5847,3422 5836,3418 Z"/><path d="M 5870,3246 C 5870,3190 5858,3132 5836,3075 L 5847,3071 5858,3067 C 5881,3127 5893,3187 5893,3246 L 5881,3246 5870,3246 Z"/><path d="M 5836,3075 C 5815,3017 5783,2958 5742,2899 L 5751,2893 5761,2886 C 5803,2946 5836,3007 5858,3067 L 5847,3071 5836,3075 Z"/><path d="M 5742,2899 C 5660,2781 5541,2662 5398,2545 L 5406,2536 5413,2527 C 5558,2646 5677,2766 5761,2886 L 5751,2893 5742,2899 Z"/><path d="M 5398,2545 C 5111,2310 4723,2084 4320,1886 L 4325,1876 4330,1866 C 4734,2064 5124,2291 5413,2527 L 5406,2536 5398,2545 Z"/><path d="M 4320,1886 C 3917,1689 3500,1520 3154,1400 L 3158,1390 3162,1379 C 3508,1498 3926,1668 4330,1866 L 4325,1876 4320,1886 Z"/><path d="M 3154,1400 C 2982,1341 2827,1293 2701,1261 L 2704,1250 2707,1239 C 2833,1271 2988,1319 3162,1379 L 3158,1390 3154,1400 Z"/><path d="M 2701,1261 C 2638,1245 2583,1233 2536,1224 L 2538,1213 2540,1201 C 2587,1210 2643,1223 2707,1239 L 2704,1250 2701,1261 Z"/><path d="M 2536,1224 C 2512,1220 2491,1217 2472,1215 L 2473,1203 2474,1192 C 2494,1194 2516,1197 2540,1201 L 2538,1213 2536,1224 Z"/><path d="M 2472,1215 C 2453,1213 2437,1212 2423,1212 L 2423,1200 2423,1189 C 2437,1189 2455,1190 2474,1192 L 2473,1203 2472,1215 Z"/><path d="M 2423,1212 C 2414,1212 2405,1212 2398,1213 L 2397,1201 2395,1190 C 2403,1189 2412,1189 2423,1189 L 2423,1200 2423,1212 Z"/><path d="M 2398,1213 C 2392,1214 2387,1215 2383,1217 L 2378,1206 2374,1195 C 2380,1193 2387,1191 2395,1190 L 2397,1201 2398,1213 Z"/><path d="M 2383,1217 C 2381,1217 2379,1218 2378,1219 L 2372,1209 2365,1200 C 2368,1198 2371,1197 2374,1195 L 2378,1206 2383,1217 Z"/><path d="M 2378,1219 C 2377,1220 2376,1220 2376,1221 L 2367,1214 2358,1206 C 2360,1204 2362,1202 2365,1200 L 2372,1209 2378,1219 Z"/><path d="M 2376,1221 C 2375,1221 2375,1222 2375,1222 L 2364,1219 2353,1215 C 2354,1212 2356,1209 2358,1206 L 2367,1214 2376,1221 Z"/><path d="M 2375,1222 C 2375,1223 2375,1224 2375,1224 L 2363,1224 2352,1224 C 2352,1221 2352,1218 2353,1215 L 2364,1219 2375,1222 Z"/><path d="M 2375,1224 C 2375,1226 2375,1228 2376,1230 L 2365,1235 2354,1239 C 2352,1234 2352,1229 2352,1224 L 2363,1224 2375,1224 Z"/><path d="M 2376,1230 C 2377,1233 2378,1236 2381,1238 L 2371,1245 2362,1252 C 2359,1248 2356,1243 2354,1239 L 2365,1235 2376,1230 Z"/><path d="M 2381,1238 C 2385,1245 2393,1252 2402,1259 L 2395,1268 2389,1277 C 2377,1269 2368,1260 2362,1252 L 2371,1245 2381,1238 Z"/><path d="M 2402,1259 C 2413,1267 2425,1275 2440,1283 L 2435,1293 2429,1303 C 2413,1294 2400,1286 2389,1277 L 2395,1268 2402,1259 Z"/><path d="M 2440,1283 C 2455,1291 2473,1300 2492,1309 L 2487,1320 2482,1330 C 2462,1321 2444,1312 2429,1303 L 2435,1293 2440,1283 Z"/><path d="M 2492,1309 C 2532,1328 2579,1347 2634,1369 L 2630,1379 2626,1390 C 2570,1369 2522,1349 2482,1330 L 2487,1320 2492,1309 Z"/><path d="M 2634,1369 C 2689,1390 2751,1413 2819,1437 L 2815,1448 2811,1459 C 2743,1434 2681,1412 2626,1390 L 2630,1379 2634,1369 Z"/><path d="M 2819,1437 C 3090,1536 3452,1660 3814,1818 L 3810,1829 3805,1839 C 3444,1681 3082,1557 2811,1459 L 2815,1448 2819,1437 Z"/><path d="M 3814,1818 C 4177,1977 4539,2169 4811,2404 L 4804,2413 4796,2421 C 4526,2188 4165,1997 3805,1839 L 3810,1829 3814,1818 Z"/><path d="M 4811,2404 C 4948,2522 5062,2650 5142,2790 L 5132,2795 5122,2801 C 5043,2663 4931,2537 4796,2421 L 4804,2413 4811,2404 Z"/><path d="M 5142,2790 C 5182,2860 5213,2933 5235,3009 L 5224,3012 5212,3015 C 5192,2941 5161,2869 5122,2801 L 5132,2795 5142,2790 Z"/><path d="M 5235,3009 C 5256,3085 5268,3164 5268,3246 L 5256,3246 5245,3246 C 5245,3166 5233,3089 5212,3015 L 5224,3012 5235,3009 Z"/></g><g/></g></g></g></g></g></svg>